<svg width="72" height="72" xmlns="http://www.w3.org/2000/svg" xmlns:xlink="http://www.w3.org/1999/xlink" xml:space="preserve" overflow="hidden"><g transform="translate(-938 -648)"><path d="M974 655.5C958.255 655.495 945.488 668.255 945.484 684 945.479 699.745 958.239 712.512 973.984 712.516 989.728 712.521 1002.5 699.761 1002.5 684.016 1002.5 684.013 1002.5 684.01 1002.5 684.008 1002.51 668.272 989.758 655.508 974.023 655.5 974.015 655.5 974.008 655.5 974 655.5ZM974 711.016C959.084 711.02 946.988 698.932 946.984 684.016 946.979 669.1 959.067 657.004 973.984 656.999 988.9 656.995 1001 669.083 1001 683.999 1001 684.003 1001 684.006 1001 684.01 1000.99 698.917 988.907 710.999 974 711.018Z" stroke="#00B050" stroke-width="2.24998" fill="#00B050"/><path d="M974.375 670.885 972.875 670.885 972.875 683.25 960.5 683.25 960.5 684.75 972.875 684.75 972.875 697.135 974.375 697.135 974.375 684.75 986.75 684.75 986.75 683.25 974.375 683.25 974.375 670.885Z" stroke="#00B050" stroke-width="2.24998" fill="#00B050"/></g></svg>