<svg width="72" height="72" xmlns="http://www.w3.org/2000/svg" xmlns:xlink="http://www.w3.org/1999/xlink" xml:space="preserve" overflow="hidden"><g transform="translate(-866 -648)"><path d="M902 655.5C886.255 655.495 873.488 668.255 873.484 684 873.479 699.745 886.239 712.512 901.984 712.516 917.728 712.521 930.495 699.761 930.5 684.016 930.5 684.013 930.5 684.01 930.5 684.008 930.508 668.272 917.758 655.508 902.023 655.5 902.015 655.5 902.008 655.5 902 655.5ZM902 711.016C887.084 711.02 874.988 698.932 874.984 684.016 874.979 669.1 887.067 657.004 901.984 656.999 916.9 656.995 928.995 669.083 929 683.999 929 684.003 929 684.006 929 684.01 928.985 698.917 916.907 710.999 902 711.018Z" stroke="#FF0000" stroke-width="3" fill="#FF0000"/><path d="M888.5 683.25 914.75 683.25 914.75 684.75 888.5 684.75Z" stroke="#FF0000" stroke-width="3" fill="#FF0000"/></g></svg>