<svg width="72" height="72" xmlns="http://www.w3.org/2000/svg" xmlns:xlink="http://www.w3.org/1999/xlink" xml:space="preserve" overflow="hidden"><g transform="translate(-289 -648)"><path d="M308.5 680.25C308.5 682.735 306.485 684.75 304 684.75 301.515 684.75 299.5 682.735 299.5 680.25 299.5 677.765 301.515 675.75 304 675.75 306.485 675.75 308.5 677.765 308.5 680.25Z" fill="#ED7D31"/><path d="M309.25 684.75 318.25 684.75 318.25 677.25 316.75 677.25C312.625 677.25 309.25 680.625 309.25 684.75Z" fill="#ED7D31"/><path d="M355 677.25 320.5 677.25 320.5 695.25C320.5 696.9 321.85 698.25 323.5 698.25L353.5 698.25 353.5 702 358 702 358 680.25C358 678.6 356.65 677.25 355 677.25Z" fill="#ED7D31"/><path d="M296.5 668.25C296.5 666.975 295.525 666 294.25 666 292.975 666 292 666.975 292 668.25L292 702 296.5 702 296.5 694.5 318.25 694.5 318.25 687 296.5 687 296.5 668.25Z" fill="#ED7D31"/></g></svg>