<svg width="72" height="72" xmlns="http://www.w3.org/2000/svg" xmlns:xlink="http://www.w3.org/1999/xlink" xml:space="preserve" overflow="hidden"><g transform="translate(-938 -648)"><path d="M968.75 697.5C968.75 700.192 966.567 702.375 963.875 702.375 961.183 702.375 959 700.192 959 697.5 959 694.808 961.183 692.625 963.875 692.625 966.567 692.625 968.75 694.808 968.75 697.5Z" fill="#ED7D31"/><path d="M998.75 697.5C998.75 700.192 996.567 702.375 993.875 702.375 991.183 702.375 989 700.192 989 697.5 989 694.808 991.183 692.625 993.875 692.625 996.567 692.625 998.75 694.808 998.75 697.5Z" fill="#ED7D31"/><path d="M1000.32 684.75 995.068 684.75C994.4 684.765 993.757 684.492 993.305 684L985.37 676.073C984.453 675.023 983.166 674.37 981.778 674.25L963.297 674.25C961.913 674.383 960.63 675.034 959.705 676.073L951.883 684C951.395 684.481 951.125 685.138 951.133 685.823L951.133 690 947.383 690C946.761 690.004 946.254 689.504 946.25 688.883 946.25 688.88 946.25 688.878 946.25 688.875L946.25 675.893C948.075 675.248 949.283 673.508 949.25 671.573L949.25 669 947.75 669 947.75 666C947.75 665.586 947.414 665.25 947 665.25 946.586 665.25 946.25 665.586 946.25 666L946.25 669 944 669 944 666C944 665.586 943.664 665.25 943.25 665.25 942.836 665.25 942.5 665.586 942.5 666L942.5 669 941 669 941 671.573C940.967 673.508 942.175 675.248 944 675.893L944 688.875C944.004 690.737 945.513 692.246 947.375 692.25L951.125 692.25 951.125 692.25C951.133 695.033 953.389 697.286 956.172 697.29L956.802 697.29C956.79 693.471 959.876 690.365 963.695 690.352 963.71 690.352 963.725 690.352 963.74 690.352 967.624 690.422 970.723 693.615 970.677 697.5L987.073 697.5C987.047 693.63 990.14 690.46 994.01 690.39 997.829 690.378 1000.94 693.463 1000.95 697.282 1000.95 697.297 1000.95 697.312 1000.95 697.328L1004.1 697.328C1005.5 697.323 1006.62 696.198 1006.62 694.807L1006.62 691.057C1006.63 687.582 1003.82 684.758 1000.35 684.75 1000.34 684.75 1000.33 684.75 1000.32 684.75ZM971 684.75 954.718 684.75 961.535 677.903C962.085 677.447 962.786 677.214 963.5 677.25L971 677.25ZM973.25 684.75 973.25 677.25 981.838 677.25C982.495 677.198 983.142 677.436 983.607 677.903L990.417 684.75Z" fill="#ED7D31"/></g></svg>