<svg width="73" height="72" xmlns="http://www.w3.org/2000/svg" xmlns:xlink="http://www.w3.org/1999/xlink" xml:space="preserve" overflow="hidden"><g transform="translate(-216 -648)"><path d="M20.523 27.054C19.3099 27.3232 18.5446 28.5247 18.8137 29.7379 19.038 30.749 19.9235 31.4762 20.9587 31.5L24.7087 69.7537 46.7903 69.7537 50.5403 31.5037C51.7825 31.4703 52.7623 30.4361 52.7288 29.194 52.7011 28.1656 51.9794 27.2869 50.976 27.06L50.751 27.0075C50.7426 20.0123 45.905 13.9495 39.0863 12.3885L39.3585 9.2385 48.3675 6.6645C49.5625 6.32319 50.2546 5.07775 49.9133 3.88275 49.5719 2.68774 48.3265 1.99569 47.1315 2.337L36.6315 5.337C35.734 5.59336 35.0879 6.37726 35.0077 7.30725L34.5983 12.0592C26.7916 12.6649 20.762 19.1698 20.7495 27ZM46.2495 27 37.827 27 38.6955 16.9282C43.1677 18.2399 46.2424 22.3395 46.2495 27ZM44.9153 42.75 36.4695 42.75 37.4392 31.5 46.0177 31.5ZM25.4812 31.5 32.925 31.5 31.95 42.75 26.5837 42.75ZM34.2038 16.6275 33.3097 27 25.2495 27C25.2592 21.8041 29.065 17.3956 34.2038 16.6275Z" fill="#ED7D31" transform="matrix(1.01389 0 0 1 216 648)"/></g></svg>