<svg width="72" height="72" xmlns="http://www.w3.org/2000/svg" xmlns:xlink="http://www.w3.org/1999/xlink" xml:space="preserve" overflow="hidden"><g transform="translate(-1010 -648)"><path d="M1046 664.35 1056.8 675.225 1058.9 673.125 1046 660.75 1032.8 673.35 1034.9 675.45Z" fill="#ED7D31"/><path d="M1070 691.425 1064 691.425 1064 685.425 1070 685.425 1070 691.425ZM1070 700.425 1064 700.425 1064 694.425 1070 694.425 1070 700.425ZM1061 691.425 1055 691.425 1055 685.425 1061 685.425 1061 691.425ZM1061 700.425 1055 700.425 1055 694.425 1061 694.425 1061 700.425ZM1051.25 691.425 1040.75 691.425 1040.75 688.425 1051.25 688.425 1051.25 691.425ZM1046 677.175C1047.28 677.175 1048.25 678.15 1048.25 679.425 1048.25 680.7 1047.28 681.675 1046 681.675 1044.72 681.675 1043.75 680.7 1043.75 679.425 1043.75 678.15 1044.72 677.175 1046 677.175ZM1037 691.425 1031 691.425 1031 685.425 1037 685.425 1037 691.425ZM1037 700.425 1031 700.425 1031 694.425 1037 694.425 1037 700.425ZM1028 691.425 1022 691.425 1022 685.425 1028 685.425 1028 691.425ZM1028 700.425 1022 700.425 1022 694.425 1028 694.425 1028 700.425ZM1055 681.675 1055 677.175 1046 668.175 1037 677.175 1037 681.675 1019 681.675 1019 707.175 1040.75 707.175 1040.75 698.925C1040.75 696.825 1042.25 694.425 1046 694.425 1049.75 694.425 1051.25 696.825 1051.25 698.925L1051.25 707.175 1073 707.175 1073 681.675 1055 681.675Z" fill="#ED7D31"/></g></svg>