<svg width="72" height="72" xmlns="http://www.w3.org/2000/svg" xmlns:xlink="http://www.w3.org/1999/xlink" xml:space="preserve" overflow="hidden"><g transform="translate(-72 -648)"><path d="M109.725 694.65 85.125 694.65C83.7 694.65 82.5 695.85 82.5 697.275 82.5 698.7 83.7 699.9 85.125 699.9L97.275 699.9 101.025 703.425 104.85 699.9 109.725 699.9C111.15 699.9 112.35 698.7 112.35 697.275 112.35 695.85 111.15 694.65 109.725 694.65Z" fill="#ED7D31"/><path d="M100.875 707.475 95.7 702.675 82.35 702.675 82.35 706.2C82.35 708.15 83.925 709.725 85.875 709.725L108.75 709.725C110.7 709.725 112.275 708.15 112.275 706.2L112.275 702.675 106.125 702.675 100.875 707.475Z" fill="#ED7D31"/><path d="M97.275 680.25C89.025 680.25 82.35 683.4 82.35 691.65L112.2 691.65C112.2 683.475 105.525 680.25 97.275 680.25Z" fill="#ED7D31"/><path d="M133.2 660.9C133.8 660.3 133.8 659.4 133.2 658.8 132.6 658.2 131.7 658.2 131.1 658.8L123.6 666.525 123.3 669.3 102.6 669.3 102.6 671.55 103.125 677.925C110.85 679.5 115.275 684.45 115.275 691.8L115.275 706.275C115.275 707.55 114.9 708.75 114.225 709.8L126.675 709.8 129.675 671.55 129.675 669.3 126.525 669.3 126.675 667.8 133.2 660.9Z" fill="#ED7D31"/></g></svg>