<svg width="72" height="72" xmlns="http://www.w3.org/2000/svg" xmlns:xlink="http://www.w3.org/1999/xlink" xml:space="preserve" overflow="hidden"><g transform="translate(-1082 -648)"><path d="M1135.25 681C1132.32 681 1130 678.675 1130 675.75 1130 672.825 1132.32 670.5 1135.25 670.5 1138.18 670.5 1140.5 672.825 1140.5 675.75 1140.5 678.675 1138.18 681 1135.25 681ZM1143.5 675.75C1143.5 671.175 1139.82 667.5 1135.25 667.5 1130.68 667.5 1127 671.175 1127 675.75 1127 679.5 1129.55 682.725 1133 683.7L1133 701.25C1133 707.475 1127.97 712.5 1121.75 712.5 1115.53 712.5 1110.5 707.475 1110.5 701.25L1110.5 693.6C1118.15 692.475 1124 685.95 1124 678 1124 676.875 1123.4 675.9 1122.5 675.45L1122.5 657C1122.5 654.75 1120.78 652.875 1118.6 652.575 1118.3 651.675 1117.47 651 1116.5 651L1115.75 651C1114.1 651 1112.75 652.35 1112.75 654 1112.75 655.65 1114.1 657 1115.75 657L1116.5 657C1117.4 657 1118.22 656.4 1118.6 655.65 1119.12 655.875 1119.5 656.4 1119.5 657L1119.5 675.45C1118.6 675.975 1118 676.95 1118 678 1118 683.4 1113.65 687.75 1108.25 687.75 1102.85 687.75 1098.5 683.4 1098.5 678 1098.5 676.875 1097.9 675.9 1097 675.45L1097 657C1097 656.4 1097.38 655.875 1097.9 655.65 1098.28 656.475 1099.03 657 1100 657L1100.75 657C1102.4 657 1103.75 655.65 1103.75 654 1103.75 652.35 1102.4 651 1100.75 651L1100 651C1099.03 651 1098.2 651.675 1097.9 652.575 1095.72 652.875 1094 654.75 1094 657L1094 675.45C1093.1 675.975 1092.5 676.95 1092.5 678 1092.5 685.95 1098.35 692.475 1106 693.6L1106 701.25C1106 709.95 1113.05 717 1121.75 717 1130.45 717 1137.5 709.95 1137.5 701.25L1137.5 683.7C1140.95 682.725 1143.5 679.5 1143.5 675.75Z" fill="#ED7D31"/><path d="M1139 675.75C1139 677.821 1137.32 679.5 1135.25 679.5 1133.18 679.5 1131.5 677.821 1131.5 675.75 1131.5 673.679 1133.18 672 1135.25 672 1137.32 672 1139 673.679 1139 675.75Z" fill="#ED7D31"/></g></svg>