<svg width="72" height="72" xmlns="http://www.w3.org/2000/svg" xmlns:xlink="http://www.w3.org/1999/xlink" xml:space="preserve" overflow="hidden"><g transform="translate(-433 -648)"><path d="M456.25 671.25 448 671.25 448 666 456.25 666 456.25 671.25ZM467.5 666 467.5 671.25 459.25 671.25 459.25 666 467.5 666ZM478.75 666 478.75 671.25 470.5 671.25 470.5 666 478.75 666ZM490 666 490 671.25 481.75 671.25 481.75 666 490 666ZM490 679.5 481.75 679.5 481.75 674.25 490 674.25 490 679.5ZM490 685.875 481.75 686.625 481.75 682.5 490 682.5 490 685.875ZM456.25 682.5 456.25 688.875 448 689.625 448 682.5 456.25 682.5ZM456.25 679.5 448 679.5 448 674.25 456.25 674.25 456.25 679.5ZM467.5 679.5 459.25 679.5 459.25 674.25 467.5 674.25 467.5 679.5ZM470.5 679.5 470.5 674.25 478.75 674.25 478.75 679.5 470.5 679.5ZM467.5 687.9 459.25 688.65 459.25 682.5 467.5 682.5 467.5 687.9ZM470.5 682.5 478.75 682.5 478.75 686.85 470.5 687.6 470.5 682.5ZM494.5 690 494.5 661.5 448 661.5 448 660.75C448 657 445 654 441.25 654 439.975 654 439 654.975 439 656.25 439 657.525 439.975 658.5 441.25 658.5 442.525 658.5 443.5 659.475 443.5 660.75L443.5 698.25C443.5 702 446.5 705 450.25 705L452.5 705 485.5 705 492.25 705C493.525 705 494.5 704.025 494.5 702.75 494.5 701.475 493.525 700.5 492.25 700.5L450.25 700.5C448.975 700.5 448 699.525 448 698.25L448 694.125 494.5 690Z" fill="#ED7D31"/><path d="M457 709.5C457 711.985 454.985 714 452.5 714 450.015 714 448 711.985 448 709.5 448 707.015 450.015 705 452.5 705 454.985 705 457 707.015 457 709.5Z" fill="#ED7D31"/><path d="M490 709.5C490 711.985 487.985 714 485.5 714 483.015 714 481 711.985 481 709.5 481 707.015 483.015 705 485.5 705 487.985 705 490 707.015 490 709.5Z" fill="#ED7D31"/></g></svg>