<svg width="72" height="72" xmlns="http://www.w3.org/2000/svg" xmlns:xlink="http://www.w3.org/1999/xlink" xml:space="preserve" overflow="hidden"><g transform="translate(-144 -648)"><path d="M192.75 686.25 195.75 686.25 195.75 692.25 192.75 692.25Z" fill="#ED7D31"/><path d="M163.5 681.75 186.75 681.75 186.75 684.75 163.5 684.75Z" fill="#ED7D31"/><path d="M163.5 687.75 177.75 687.75 177.75 690.75 163.5 690.75Z" fill="#ED7D31"/><path d="M163.5 693.75 180.75 693.75 180.75 696.75 163.5 696.75Z" fill="#ED7D31"/><path d="M208.5 685.5 210.75 685.5 210.75 672 149.25 672 149.25 685.5 151.5 685.5C153.364 685.5 154.875 687.011 154.875 688.875 154.875 690.739 153.364 692.25 151.5 692.25L149.25 692.25 149.25 706.5 210.75 706.5 210.75 693 208.5 693C206.429 693 204.75 691.321 204.75 689.25 204.75 687.179 206.429 685.5 208.5 685.5ZM206.25 697.188 206.25 702 195.75 702 195.75 696 192.75 696 192.75 702 153.75 702 153.75 696.422C157.918 695.181 160.291 690.795 159.049 686.627 158.29 684.079 156.297 682.087 153.75 681.328L153.75 676.5 192.75 676.5 192.75 682.5 195.75 682.5 195.75 676.5 206.25 676.5 206.25 681.312C201.866 682.553 199.318 687.113 200.559 691.497 201.34 694.254 203.494 696.408 206.25 697.188Z" fill="#ED7D31"/><path d="M199.125 666.675 199.65 669 204.225 669 202.725 661.35 164.25 669 187.275 669 199.125 666.675Z" fill="#ED7D31"/></g></svg>