<svg width="72" height="72" xmlns="http://www.w3.org/2000/svg" xmlns:xlink="http://www.w3.org/1999/xlink" xml:space="preserve" overflow="hidden"><g transform="translate(-361 -648)"><path d="M415 687.75C411.272 687.75 408.25 690.772 408.25 694.5 408.25 698.228 411.272 701.25 415 701.25 418.728 701.25 421.75 698.228 421.75 694.5 421.746 690.774 418.726 687.754 415 687.75ZM415 699.75C412.1 699.75 409.75 697.399 409.75 694.5 409.75 691.601 412.1 689.25 415 689.25 417.9 689.25 420.25 691.601 420.25 694.5 420.25 697.399 417.9 699.75 415 699.75Z" stroke="#ED7D31" stroke-width="2" fill="#ED7D31"/><path d="M387.108 693.013C387.2 693.503 387.248 694.001 387.25 694.5L387.25 694.513 406.755 694.513 406.755 694.5C406.757 694.001 406.804 693.503 406.896 693.013Z" stroke="#ED7D31" stroke-width="2" fill="#ED7D31"/><path d="M422.5 681C425.814 681 428.5 683.686 428.5 687L428.5 691.512C428.5 692.34 427.828 693.012 427 693.012L423.11 693.012C423.201 693.503 423.248 694.001 423.25 694.5L423.25 694.513 427 694.513C428.655 694.507 429.995 693.167 430 691.513L430 687.013C429.988 682.87 426.635 679.514 422.492 679.5L416.275 679.5C415.478 679.526 414.71 679.2 414.175 678.608L404.725 669.233C403.59 668.107 402.049 667.485 400.45 667.508L388.028 667.508C388.018 667.508 388.01 667.503 388 667.503 387.99 667.503 387.983 667.508 387.973 667.508L378.475 667.508C376.879 667.499 375.343 668.119 374.2 669.233L364.9 678.608C364.317 679.181 363.992 679.966 364 680.783L364 688.508C364.011 691.818 366.691 694.497 370 694.508L370.75 694.508 370.75 694.5C370.752 694.001 370.799 693.503 370.891 693.013L370 693.013C367.515 693.013 365.5 690.998 365.5 688.513L365.5 681ZM403.671 670.296 412.947 679.5 388.75 679.5 388.75 669.005 400.45 669.005C401.654 668.981 402.817 669.447 403.671 670.296ZM375.262 670.292C376.122 669.457 377.276 668.995 378.475 669.005L387.25 669.005 387.25 679.5 366.147 679.5C366.137 679.5 366.134 679.494 366.141 679.487Z" stroke="#ED7D31" stroke-width="2" fill="#ED7D31"/><path d="M379 687.75C375.272 687.75 372.25 690.772 372.25 694.5 372.25 698.228 375.272 701.25 379 701.25 382.728 701.25 385.75 698.228 385.75 694.5 385.746 690.774 382.726 687.754 379 687.75ZM379 699.75C376.1 699.75 373.75 697.399 373.75 694.5 373.75 691.601 376.1 689.25 379 689.25 381.9 689.25 384.25 691.601 384.25 694.5 384.25 697.399 381.9 699.75 379 699.75Z" stroke="#ED7D31" stroke-width="2" fill="#ED7D31"/></g></svg>