<svg width="96" height="96" xmlns="http://www.w3.org/2000/svg" xmlns:xlink="http://www.w3.org/1999/xlink" xml:space="preserve" overflow="hidden"><g transform="translate(-685 -235)"><path d="M769 266.009 743 266.009 743 259.009C742.993 256.803 741.206 255.016 739 255.009L697 255.009C694.794 255.016 693.007 256.803 693 259.009L693 286.017C693.007 288.223 694.794 290.01 697 290.017L703 290.017 703 300.017 713 290.017 723 290.017 723 297.017C723.007 299.223 724.794 301.01 727 301.017L753 301.017 763 311.017 763 301.017 769 301.017C771.206 301.01 772.993 299.223 773 297.017L773 270.01C772.994 267.803 771.207 266.016 769 266.009ZM723 270.009 723 288.018 712.174 288.018 711.588 288.604 705 295.192 705 288.018 697 288.018C695.895 288.018 695 287.123 695 286.018L695 259.01C695 257.905 695.895 257.01 697 257.01L739 257.01C740.105 257.01 741 257.905 741 259.01L741 266.01 727 266.01C724.794 266.017 723.007 267.804 723 270.01ZM771 297.017C771 298.122 770.105 299.017 769 299.017L761 299.017 761 306.191 754.418 299.6 753.832 299.014 727 299.014C725.895 299.014 725 298.119 725 297.014L725 270.01C725 268.905 725.895 268.01 727 268.01L769 268.01C770.105 268.01 771 268.905 771 270.01Z" stroke="#000000" stroke-width="4"/></g></svg>