<svg width="96" height="96" xmlns="http://www.w3.org/2000/svg" xmlns:xlink="http://www.w3.org/1999/xlink" xml:space="preserve" overflow="hidden"><g transform="translate(-803 -342)"><path d="M811 362 811 418 891 418 891 362 811 362ZM852.4 396.9C851.6 397.7 850.4 397.7 849.6 396.9L820 368 882.1 368 852.4 396.9ZM836.5 389.7 817 409.3 817 370.6 836.5 389.7ZM839.4 392.5 846.9 399.8C848.1 400.9 849.6 401.5 851.1 401.5 852.6 401.5 854.1 400.9 855.3 399.8L862.8 392.5 882.2 412 819.9 412 839.4 392.5ZM865.5 389.7 885 370.7 885 409.2 865.5 389.7Z"/></g></svg>