<svg width="1752" height="2475" xmlns="http://www.w3.org/2000/svg" xmlns:xlink="http://www.w3.org/1999/xlink" xml:space="preserve" overflow="hidden"><g transform="translate(-1324 0)"><path d="M2101 1238C2101 1183.32 2145.32 1139 2200 1139 2254.68 1139 2299 1183.32 2299 1238 2299 1292.68 2254.68 1337 2200 1337 2145.32 1337 2101 1292.68 2101 1238Z" fill-rule="evenodd"/><path d="M2589 1238C2589 1183.32 2633.32 1139 2688 1139 2742.68 1139 2787 1183.32 2787 1238 2787 1292.68 2742.68 1337 2688 1337 2633.32 1337 2589 1292.68 2589 1238Z" fill-rule="evenodd"/><path d="M1613 1238C1613 1183.32 1657.32 1139 1712 1139 1766.68 1139 1811 1183.32 1811 1238 1811 1292.68 1766.68 1337 1712 1337 1657.32 1337 1613 1292.68 1613 1238Z" fill-rule="evenodd"/></g></svg>