<svg width="72" height="72" xmlns="http://www.w3.org/2000/svg" xmlns:xlink="http://www.w3.org/1999/xlink" xml:space="preserve" overflow="hidden"><defs><linearGradient x1="35.9987" y1="3.99986" x2="35.9987" y2="67.9976" gradientUnits="userSpaceOnUse" spreadMethod="pad" id="fill0"><stop offset="0" stop-color="#2188FF"/><stop offset="1" stop-color="#1872D6"/></linearGradient></defs><g transform="translate(-709 -170)"><path d="M13.9995 3.99986C8.4767 3.99986 3.99986 8.4767 3.99986 13.9995L3.99986 57.9979C3.99986 63.5207 8.4767 67.9976 13.9995 67.9976L49.9982 67.9976 67.9976 49.9982 67.9976 13.9995C67.9976 8.4767 63.5207 3.99986 57.9979 3.99986L13.9995 3.99986Z" fill="url(#fill0)" fill-rule="evenodd" transform="matrix(1 0 0 1.00004 709.007 170)"/><path d="M52.6961 52.9981 67.1956 49.9982 49.6962 67.3976 35.9987 67.3976 52.6961 52.9981Z" fill="#1569C7" transform="matrix(1 0 0 1.00004 709.007 170)"/><path d="M59.9979 49.9982 67.9976 49.9982 49.9982 67.9976 49.9982 59.9979C49.9982 54.4751 54.4751 49.9982 59.9979 49.9982Z" fill="#9FC5F1" fill-rule="evenodd" transform="matrix(1 0 0 1.00004 709.007 170)"/><path d="M42.7795 23.7182 44.1864 23.7182C48.0193 23.7182 50.3102 25.0201 51.0602 27.624 51.3002 28.468 51.4202 29.442 51.4202 30.5459L51.4202 44.9984 42.7805 44.9984 42.7805 23.7182ZM31.1869 23.7182 39.8736 23.7182 39.8736 44.9984 31.1859 44.9984 31.1859 23.7182ZM19.5623 23.7182 28.249 23.7182 28.249 44.9984 19.5613 44.9984 19.5613 23.7182Z" fill="#FFFFFF" transform="matrix(1 0 0 1.00004 709.007 170)"/></g></svg>