<svg width="96" height="96" xmlns="http://www.w3.org/2000/svg" xmlns:xlink="http://www.w3.org/1999/xlink" xml:space="preserve" overflow="hidden"><g transform="translate(-1144 -312)"><path d="M1210 374.5 1209.9 394.5 1174.2 394.5 1174 374.5 1210 374.5ZM1168.2 400.5 1215.8 400.5 1215.9 368.5 1168 368.5 1168.2 400.5Z"/><path d="M1182 378.5 1202 378.5 1202 382.5 1182 382.5Z"/><path d="M1182 386.5 1202 386.5 1202 390.5 1182 390.5Z"/><path d="M1210 349 1174 349 1174 326 1196 326 1196 340 1210 340 1210 349ZM1202 326.4 1208.9 334 1202 334 1202 326.4ZM1158 354C1155.8 354 1154 352.2 1154 350 1154 347.8 1155.8 346 1158 346 1160.2 346 1162 347.8 1162 350 1162 352.2 1160.2 354 1158 354ZM1232 340 1216 340 1216 332.8 1204.3 320 1168 320 1168 340 1152 340C1149.8 340 1148 341.8 1148 344L1148 384C1148 386.2 1149.8 388 1152 388L1164 388 1164 365 1220 365 1220 388 1232 388C1234.2 388 1236 386.2 1236 384L1236 344C1236 341.8 1234.2 340 1232 340Z"/></g></svg>