<svg width="1179" height="1181" xmlns="http://www.w3.org/2000/svg" xmlns:xlink="http://www.w3.org/1999/xlink" xml:space="preserve" overflow="hidden"><defs><clipPath id="clip0"><rect x="2027" y="1054" width="1179" height="1181"/></clipPath><clipPath id="clip1"><rect x="2027" y="1053" width="1117" height="1119"/></clipPath><clipPath id="clip2"><rect x="2027" y="1053" width="1117" height="1119"/></clipPath><clipPath id="clip3"><rect x="2027" y="1053" width="1117" height="1119"/></clipPath><clipPath id="clip4"><rect x="2247" y="1334" width="677" height="452"/></clipPath><clipPath id="clip5"><rect x="2247" y="1334" width="677" height="452"/></clipPath><clipPath id="clip6"><rect x="2247" y="1334" width="677" height="679"/></clipPath><clipPath id="clip7"><rect x="2487" y="1611" width="197" height="199"/></clipPath><clipPath id="clip8"><rect x="2487" y="1611" width="197" height="199"/></clipPath><clipPath id="clip9"><rect x="2487" y="1611" width="197" height="199"/></clipPath><clipPath id="clip10"><rect x="2534" y="1563" width="673" height="673"/></clipPath><clipPath id="clip11"><rect x="2534" y="1563" width="673" height="673"/></clipPath><clipPath id="clip12"><rect x="2534" y="1563" width="673" height="673"/></clipPath></defs><g clip-path="url(#clip0)" transform="translate(-2027 -1054)"><g clip-path="url(#clip1)"><g clip-path="url(#clip2)"><g clip-path="url(#clip3)"><path d="M354.88 442.146 1025.08 323.465 992.501 139.625 76.7937 302.521 107.046 473.561 109.373 930.833C109.373 956.431 130.317 977.375 155.915 977.375L993.664 977.375C1019.26 977.375 1040.21 956.431 1040.21 930.833L1040.21 442.146 354.88 442.146ZM877.31 207.11 955.268 193.148 957.595 207.11 893.6 297.867 802.844 315.32 877.31 207.11ZM688.817 240.853 780.736 224.564 705.106 332.773 613.186 349.062 688.817 240.853ZM499.159 274.596 591.079 258.306 515.449 366.516 423.529 382.805 499.159 274.596ZM310.666 308.339 402.585 292.049 326.955 400.258 235.035 416.548 310.666 308.339ZM212.928 325.792 145.443 422.366 130.317 339.754 212.928 325.792ZM854.039 733.031 295.54 733.031 295.54 593.406 854.039 593.406 854.039 733.031Z" transform="matrix(1 0 0 1 2027 1054)"/></g></g></g><g clip-path="url(#clip4)"><g clip-path="url(#clip5)"><g clip-path="url(#clip6)"><path d="M228.487 54.301C241.886 60.6479 253.17 71.226 260.927 83.9198 270.095 98.0239 275.736 112.128 278.557 126.232 250.349 144.568 232.013 176.302 232.013 212.268 232.013 224.256 234.129 235.54 237.655 246.823L432.293 246.823C442.166 218.615 440.755 185.47 418.894 150.915 413.252 141.747 405.495 133.99 397.032 127.643 399.853 112.833 406.2 98.0239 415.368 83.2146 423.83 70.5208 435.113 59.9427 447.807 53.5958 454.859 50.0698 457.68 41.6073 454.154 34.5552 450.628 27.5031 442.166 24.6823 435.113 28.2083 417.483 37.376 401.969 50.775 391.391 67.7 380.812 83.9198 374.466 99.4344 370.939 114.244 347.668 106.486 325.101 106.486 304.65 112.833 301.124 98.7291 294.072 83.2146 284.199 67.7 273.621 50.775 258.106 36.6708 240.476 28.2083 233.424 24.6823 224.961 27.5031 221.435 34.5552 217.909 41.6073 221.435 51.4802 228.487 54.301Z" fill="#548235" transform="matrix(1 0 0 1.00177 2247 1334)"/><path d="M626.225 469.669 541.6 385.749C538.779 383.633 535.253 382.223 531.022 381.518L473.9 381.518C472.489 370.234 470.374 358.246 467.553 346.962L526.085 334.974C533.843 333.563 540.189 327.217 542.305 320.165L577.565 191.817C580.386 180.533 574.039 169.25 562.756 165.724 551.473 162.903 540.189 169.25 536.663 180.533L504.929 296.187 456.27 306.06C452.038 295.482 447.807 287.02 442.871 281.378L229.898 281.378C224.961 287.02 220.025 295.482 216.499 306.766L158.672 295.482 133.284 181.238C130.464 169.955 119.18 162.903 107.897 165.019 96.6135 167.84 89.5614 179.123 91.6771 190.406L119.885 318.754C122.001 327.217 128.348 333.563 136.81 334.974L204.51 347.668C202.395 358.951 200.279 370.234 198.163 380.812L145.273 380.812C141.747 381.518 138.221 382.928 134.695 385.044L50.0698 468.963C40.9021 476.016 38.7864 489.414 45.8385 498.582 52.8906 507.75 66.2896 509.866 75.4573 502.813L155.851 423.125 193.227 423.125C192.522 429.472 192.522 435.113 192.522 439.345 192.522 450.628 193.932 461.911 196.753 472.489L143.157 486.594C136.105 488.004 131.169 492.941 128.348 499.993L83.9198 620.583C79.6885 631.867 85.3302 643.855 96.6135 647.381 98.7291 648.086 101.55 648.792 103.666 648.792 112.128 648.792 120.591 643.15 123.411 634.687L163.608 523.97 212.268 511.981C233.424 547.947 269.39 574.039 312.407 580.386 318.754 575.45 322.985 567.693 322.985 559.23L322.985 423.83C322.985 416.073 329.332 410.431 336.384 410.431 344.142 410.431 349.783 416.778 349.783 423.83L349.783 559.935C349.783 568.398 354.014 576.155 359.656 581.092 401.969 574.039 437.934 547.947 459.091 511.276L511.981 524.675 552.178 635.393C554.999 643.855 563.461 649.497 571.924 649.497 574.039 649.497 576.86 648.792 578.976 648.086 590.259 643.855 595.901 631.867 591.67 621.288L547.242 499.993C545.126 493.646 539.484 488.709 532.432 486.594L474.605 471.784C476.721 461.206 478.131 450.628 478.131 440.05 478.131 435.113 478.131 429.472 477.426 423.83L519.738 423.83 599.427 504.224C608.595 511.276 621.994 509.16 629.046 499.993 637.508 490.12 635.393 476.721 626.225 469.669Z" fill="#548235" transform="matrix(1 0 0 1.00177 2247 1334)"/></g></g></g><g clip-path="url(#clip7)"><g clip-path="url(#clip8)"><g clip-path="url(#clip9)"><path d="M20.5208 69.7708 34.8854 69.7708 34.8854 77.9792 20.5208 77.9792Z" transform="matrix(1 0 0 1 2487 1612)"/><path d="M20.5208 53.3542 34.8854 53.3542 34.8854 61.5625 20.5208 61.5625Z" transform="matrix(1 0 0 1 2487 1612)"/><path d="M20.5208 86.1875 34.8854 86.1875 34.8854 94.3958 20.5208 94.3958Z" transform="matrix(1 0 0 1 2487 1612)"/><path d="M20.5208 135.437 34.8854 135.437 34.8854 143.646 20.5208 143.646Z" transform="matrix(1 0 0 1 2487 1612)"/><path d="M20.5208 119.021 34.8854 119.021 34.8854 127.229 20.5208 127.229Z" transform="matrix(1 0 0 1 2487 1612)"/><path d="M20.5208 102.604 34.8854 102.604 34.8854 110.812 20.5208 110.812Z" transform="matrix(1 0 0 1 2487 1612)"/><path d="M162.115 119.021 176.479 119.021 176.479 127.229 162.115 127.229Z" transform="matrix(1 0 0 1 2487 1612)"/><path d="M162.115 135.437 176.479 135.437 176.479 143.646 162.115 143.646Z" transform="matrix(1 0 0 1 2487 1612)"/><path d="M162.115 102.604 176.479 102.604 176.479 110.812 162.115 110.812Z" transform="matrix(1 0 0 1 2487 1612)"/><path d="M162.115 53.3542 176.479 53.3542 176.479 61.5625 162.115 61.5625Z" transform="matrix(1 0 0 1 2487 1612)"/><path d="M162.115 86.1875 176.479 86.1875 176.479 94.3958 162.115 94.3958Z" transform="matrix(1 0 0 1 2487 1612)"/><path d="M162.115 69.7708 176.479 69.7708 176.479 77.9792 162.115 77.9792Z" transform="matrix(1 0 0 1 2487 1612)"/><path d="M102.604 20.5208 110.812 20.5208 110.812 34.8854 102.604 34.8854Z" transform="matrix(1 0 0 1 2487 1612)"/><path d="M135.437 20.5208 143.646 20.5208 143.646 34.8854 135.437 34.8854Z" transform="matrix(1 0 0 1 2487 1612)"/><path d="M119.021 20.5208 127.229 20.5208 127.229 34.8854 119.021 34.8854Z" transform="matrix(1 0 0 1 2487 1612)"/><path d="M86.1875 20.5208 94.3958 20.5208 94.3958 34.8854 86.1875 34.8854Z" transform="matrix(1 0 0 1 2487 1612)"/><path d="M53.3542 20.5208 61.5625 20.5208 61.5625 34.8854 53.3542 34.8854Z" transform="matrix(1 0 0 1 2487 1612)"/><path d="M69.7708 20.5208 77.9792 20.5208 77.9792 34.8854 69.7708 34.8854Z" transform="matrix(1 0 0 1 2487 1612)"/><path d="M69.7708 162.115 77.9792 162.115 77.9792 176.479 69.7708 176.479Z" transform="matrix(1 0 0 1 2487 1612)"/><path d="M53.3542 162.115 61.5625 162.115 61.5625 176.479 53.3542 176.479Z" transform="matrix(1 0 0 1 2487 1612)"/><path d="M86.1875 162.115 94.3958 162.115 94.3958 176.479 86.1875 176.479Z" transform="matrix(1 0 0 1 2487 1612)"/><path d="M102.604 162.115 110.812 162.115 110.812 176.479 102.604 176.479Z" transform="matrix(1 0 0 1 2487 1612)"/><path d="M119.021 162.115 127.229 162.115 127.229 176.479 119.021 176.479Z" transform="matrix(1 0 0 1 2487 1612)"/><path d="M135.437 162.115 143.646 162.115 143.646 176.479 135.437 176.479Z" transform="matrix(1 0 0 1 2487 1612)"/><path d="M71.8229 71.8229 125.177 71.8229 125.177 125.177 71.8229 125.177Z" transform="matrix(1 0 0 1 2487 1612)"/><path d="M145.698 43.0937 51.3021 43.0937C46.7688 43.0937 43.0937 46.7688 43.0937 51.3021L43.0937 145.698C43.0937 150.231 46.7688 153.906 51.3021 153.906L145.698 153.906C150.231 153.906 153.906 150.231 153.906 145.698L153.906 51.3021C153.906 46.7688 150.231 43.0937 145.698 43.0937ZM133.385 133.385 63.6146 133.385 63.6146 63.6146 133.385 63.6146Z" transform="matrix(1 0 0 1 2487 1612)"/></g></g></g><g clip-path="url(#clip10)"><g clip-path="url(#clip11)"><g clip-path="url(#clip12)"><path d="M2870 1955C2839.2 1955 2814 1929.8 2814 1899 2814 1868.2 2839.2 1843 2870 1843 2900.8 1843 2926 1868.2 2926 1899 2926 1929.8 2900.8 1955 2870 1955ZM3135.3 1934C3127.6 1913 3119.2 1892 3108.7 1871.7 3106.6 1868.2 3106.6 1864.7 3108.7 1861.2 3110.1 1857.7 3113.6 1854.9 3117.1 1854.2L3121.3 1853.5C3125.5 1852.8 3129 1849.3 3130.4 1845.1 3131.8 1840.9 3131.1 1836.7 3127.6 1833.2 3114.3 1817.8 3094 1795.4 3079.3 1781.4 3076.5 1778.6 3075.1 1775.1 3075.8 1770.9 3076.5 1767.4 3078.6 1763.9 3081.4 1761.8L3082.1 1761.1C3085.6 1759 3088.4 1754.8 3088.4 1749.9 3088.4 1745.7 3085.6 1741.5 3082.1 1739.4 3063.2 1729.6 3035.9 1715.6 3017.7 1707.9 3014.2 1706.5 3011.4 1703.7 3010.7 1699.5 3010 1696 3010.7 1691.8 3012.8 1689L3013.5 1687.6C3016.3 1684.1 3017 1679.2 3014.9 1675 3012.8 1670.8 3009.3 1668 3005.1 1668 2984.1 1666.6 2953.3 1663.8 2933.7 1663.8 2930.2 1663.8 2926.7 1661.7 2923.9 1658.9 2921.8 1656.1 2921.1 1651.9 2921.8 1648.4L2921.8 1647C2923.2 1642.8 2921.8 1637.9 2918.3 1635.1 2914.8 1632.3 2910.6 1630.9 2906.4 1632.3 2886.8 1638.6 2857.4 1648.4 2839.2 1656.1 2835.7 1657.5 2831.5 1657.5 2828.7 1655.4 2825.2 1653.3 2823.1 1650.5 2823.1 1646.3L2823.1 1644.9C2822.4 1640.7 2819.6 1636.5 2815.4 1635.1 2811.2 1633.7 2806.3 1634.4 2803.5 1637.2 2787.4 1651.2 2764.3 1671.5 2750.3 1684.8 2747.5 1687.6 2744 1689 2740.5 1688.3 2737 1687.6 2733.5 1685.5 2731.4 1682.7L2730.7 1681.3C2728.6 1677.8 2724.4 1675 2720.2 1675.7 2716 1675.7 2711.8 1678.5 2709.7 1682 2699.9 1700.9 2686.6 1728.9 2678.9 1746.4 2677.5 1749.9 2674.7 1752.7 2671.2 1753.4 2667.7 1754.1 2663.5 1753.4 2660.7 1751.3L2659.3 1752C2655.8 1749.2 2650.9 1748.5 2646.7 1750.6 2642.5 1752.7 2639.7 1756.2 2639.7 1760.4 2638.3 1781.4 2635.5 1812.2 2635.5 1831.8 2635.5 1835.3 2634.1 1838.8 2630.6 1841.6 2627.8 1843.7 2623.6 1844.4 2620.1 1843.7L2618.7 1843.7C2614.5 1842.3 2609.6 1843.7 2606.8 1847.2 2604 1850.7 2602.6 1854.9 2604 1859.1 2610.3 1878.7 2620.1 1908.8 2627.1 1927 2628.5 1930.5 2628.5 1934.7 2626.4 1937.5 2625 1941 2622.2 1943.1 2618 1943.8L2616.6 1943.8C2612.4 1944.5 2608.2 1947.3 2606.8 1951.5 2605.4 1955.7 2606.1 1960.6 2608.9 1963.4 2622.2 1979.5 2642.5 2003.3 2656.5 2017.3 2659.3 2020.1 2660 2023.6 2660 2027.8 2659.3 2031.3 2657.2 2034.8 2654.4 2036.9L2653.7 2036.9C2649.5 2039 2647.4 2043.2 2647.4 2048.1 2647.4 2053 2650.2 2056.5 2654.4 2058.6L2718.8 2089.4C2722.3 2090.8 2725.1 2094.3 2725.8 2097.8 2726.5 2101.3 2725.8 2105.5 2723 2108.3L2721.6 2109C2718.8 2112.5 2718.1 2117.4 2720.2 2121.6 2722.3 2125.8 2725.8 2128.6 2730.7 2128.6L2802.1 2132.1C2805.6 2132.1 2809.1 2134.2 2811.2 2137 2813.3 2139.8 2814 2144 2813.3 2147.5L2812.6 2149.6C2811.2 2153.8 2812.6 2158.7 2816.1 2161.5 2819.6 2164.3 2823.8 2165.7 2828.7 2164.3L2896.6 2139.8C2900.1 2139.1 2903.6 2139.1 2906.4 2140.5 2909.2 2141.9 2911.3 2145.4 2912 2148.2L2913.4 2153.8C2914.1 2158 2917.6 2161.5 2921.8 2162.9 2926 2164.3 2930.9 2162.9 2933.7 2160.1L2984.1 2111.1C2986.9 2108.3 2990.4 2107.6 2993.9 2107.6 2997.4 2108.3 3000.9 2110.4 3002.3 2113.2L3003.7 2115.3C3005.8 2119.5 3010 2121.6 3014.9 2121.6 3019.1 2121.6 3023.3 2118.8 3025.4 2114.6L3056.9 2046.7C3058.3 2043.9 3060.4 2041.1 3063.2 2040.4 3066 2039 3069.5 2039 3072.3 2040.4L3080.7 2043.9C3084.2 2045.3 3089.1 2045.3 3091.9 2042.5 3095.4 2040.4 3097.5 2036.2 3097.5 2032L3097.5 1961.3C3097.5 1954.3 3103.1 1949.4 3109.4 1949.4L3123.4 1949.4C3126.9 1949.4 3131.1 1947.3 3133.2 1943.8 3136 1941.7 3136.7 1937.5 3135.3 1934Z" fill="#2F5597"/></g></g></g></g></svg>